<mxfile host="app.diagrams.net" modified="2024-07-05T09:27:07.336Z" agent="Mozilla/5.0 (Windows NT 10.0; Win64; x64) AppleWebKit/537.36 (KHTML, like Gecko) Chrome/126.0.0.0 Safari/537.36" version="24.2.8" etag="9KXZtPRCbfTP7tVJPDa2" type="github">
  <diagram name="Page-1" id="8J8CI9a2RkK4PR5-pnM1">
    <mxGraphModel>
      <root>
        <mxCell id="0" />
        <mxCell id="1" parent="0" />
      </root>
    </mxGraphModel>
  </diagram>
</mxfile>
